<svg xmlns="http://www.w3.org/2000/svg" viewBox="0 0 225 281.6675"><path d="M117.504 3.87L11.854 109.52c-13.534 13.534-13.534 35.48 0 49.012L64.68 211.36c6.767 6.767 15.637 10.148 24.506 10.148s17.74-3.384 24.505-10.148l105.65-105.65V3.87H117.504zm-21.49 189.813c-2.46 2.46-5.333 2.828-6.828 2.828-1.494 0-4.368-.366-6.828-2.825L29.53 140.853c-2.458-2.46-2.826-5.332-2.826-6.824s.367-4.367 2.83-6.828l98.325-98.328h66.48v66.483l-98.325 98.326zM153.502 50.5c9.85 0 17.834 7.985 17.834 17.834S163.35 86.167 153.5 86.167s-17.832-7.984-17.832-17.833S143.652 50.5 153.5 50.5z"/><text y="240.334" font-size="5" font-weight="bold" font-family="'Helvetica Neue', Helvetica, Arial-Unicode, Arial, Sans-serif">Created by Víctor Fernández</text><text y="245.334" font-size="5" font-weight="bold" font-family="'Helvetica Neue', Helvetica, Arial-Unicode, Arial, Sans-serif">from the Noun Project</text></svg>