<svg xmlns="http://www.w3.org/2000/svg" width="433" height="427" viewBox="259.5 11.5 433 427"><path fill="#4682b4" d="M367.44 22.4c-2.7 0-5.492 1.013-7.56 3.08l-78.4 78.4c-4.137 4.137-4.137 10.843 0 14.98L386.62 224 281.48 329.14c-4.137 4.137-4.137 10.845 0 14.98l78.4 78.4c4.137 4.137 10.843 4.137 14.98 0L480 317.38l105.14 105.14c4.138 4.138 10.844 4.138 14.98 0l78.4-78.4c4.136-4.135 4.136-10.843 0-14.98L573.38 224l105.14-105.14c4.137-4.137 4.137-10.843 0-14.98l-78.4-78.4c-4.136-4.136-10.842-4.136-14.98 0L480 130.62 374.86 25.48c-2.068-2.067-4.72-3.08-7.42-3.08z"/></svg>