<svg xmlns="http://www.w3.org/2000/svg" width="495" height="495" viewBox="235.5 33.5 495 495"><g fill="#fff"><path d="M434.64 39.29h96.32c8.86 0 16.056 7.19 16.056 16.055v96.32c0 8.865-7.196 16.05-16.056 16.05h-96.32c-8.87 0-16.055-7.186-16.055-16.05v-96.32c0-8.865 7.18-16.055 16.055-16.055zM611.23 39.29h96.32c8.854 0 16.05 7.19 16.05 16.055v96.32c0 8.865-7.196 16.05-16.05 16.05h-96.32c-8.876 0-16.056-7.186-16.056-16.05v-96.32c-.004-8.865 7.18-16.055 16.056-16.055zM258.055 39.29h96.32c8.86 0 16.056 7.19 16.056 16.055v96.32c0 8.865-7.195 16.05-16.055 16.05h-96.32c-8.87 0-16.055-7.186-16.055-16.05v-96.32c0-8.865 7.18-16.055 16.055-16.055zM434.64 215.875h96.32c8.86 0 16.056 7.18 16.056 16.055v96.314c0 8.876-7.196 16.055-16.056 16.055h-96.32c-8.87 0-16.055-7.18-16.055-16.056V231.93c0-8.87 7.18-16.055 16.055-16.055zM611.23 215.875h96.32c8.854 0 16.05 7.18 16.05 16.055v96.314c0 8.876-7.196 16.055-16.05 16.055h-96.32c-8.876 0-16.056-7.18-16.056-16.056V231.93c-.004-8.87 7.18-16.055 16.056-16.055zM258.055 215.875h96.32c8.86 0 16.056 7.18 16.056 16.055v96.314c0 8.876-7.195 16.055-16.055 16.055h-96.32c-8.87 0-16.055-7.18-16.055-16.056V231.93c0-8.87 7.18-16.055 16.055-16.055zM434.64 392.46h96.32c8.86 0 16.056 7.18 16.056 16.055v96.314c0 8.875-7.196 16.054-16.056 16.054h-96.32c-8.87 0-16.055-7.18-16.055-16.055v-96.315c0-8.876 7.18-16.056 16.055-16.056zM611.23 392.46h96.32c8.854 0 16.05 7.18 16.05 16.055v96.314c0 8.875-7.196 16.054-16.05 16.054h-96.32c-8.876 0-16.056-7.18-16.056-16.055v-96.315c-.004-8.876 7.18-16.056 16.056-16.056zM258.055 392.46h96.32c8.86 0 16.056 7.18 16.056 16.055v96.314c0 8.875-7.195 16.054-16.055 16.054h-96.32c-8.87 0-16.055-7.18-16.055-16.055v-96.315c0-8.876 7.18-16.056 16.055-16.056z"/></g></svg>