<?xml version="1.0" encoding="utf-8"?>
<!-- Generator: Adobe Illustrator 16.0.0, SVG Export Plug-In . SVG Version: 6.00 Build 0)  -->
<!DOCTYPE svg PUBLIC "-//W3C//DTD SVG 1.1//EN" "http://www.w3.org/Graphics/SVG/1.1/DTD/svg11.dtd">
<svg version="1.1"
	 id="Layer_1" xmlns:dc="http://purl.org/dc/elements/1.1/" xmlns:cc="http://creativecommons.org/ns#" xmlns:rdf="http://www.w3.org/1999/02/22-rdf-syntax-ns#" xmlns:svg="http://www.w3.org/2000/svg"
	 xmlns="http://www.w3.org/2000/svg" xmlns:xlink="http://www.w3.org/1999/xlink" x="0px" y="0px" width="433px" height="427px"
	 viewBox="259.5 11.5 433 427" enable-background="new 259.5 11.5 433 427" xml:space="preserve">
<path fill="steelblue" d="M367.44,22.4c-2.699,0-5.492,1.013-7.56,3.08l-78.4,78.4c-4.137,4.137-4.137,10.843,0,14.98L386.62,224L281.48,329.14
	c-4.137,4.137-4.137,10.845,0,14.98l78.4,78.399c4.137,4.138,10.843,4.138,14.98,0L480,317.38l105.14,105.14
	c4.138,4.138,10.844,4.138,14.98,0l78.399-78.399c4.137-4.136,4.137-10.844,0-14.98L573.38,224l105.14-105.14
	c4.137-4.137,4.137-10.843,0-14.98l-78.399-78.4c-4.137-4.136-10.843-4.136-14.98,0L480,130.62L374.86,25.48
	C372.792,23.413,370.139,22.4,367.44,22.4z"/>
</svg>
