<?xml version="1.0" encoding="utf-8"?>
<!-- Generator: Adobe Illustrator 16.0.0, SVG Export Plug-In . SVG Version: 6.00 Build 0)  -->
<!DOCTYPE svg PUBLIC "-//W3C//DTD SVG 1.1//EN" "http://www.w3.org/Graphics/SVG/1.1/DTD/svg11.dtd">
<svg version="1.1" id="Layer_1" xmlns="http://www.w3.org/2000/svg" xmlns:xlink="http://www.w3.org/1999/xlink" x="0px" y="0px"
	 width="495px" height="495px" viewBox="235.5 33.5 495 495" enable-background="new 235.5 33.5 495 495" xml:space="preserve">
<g>
	<path fill="#ffffff" d="M434.64,39.29h96.32c8.859,0,16.056,7.19,16.056,16.055v96.32c0,8.865-7.196,16.049-16.056,16.049h-96.32
		c-8.87,0-16.055-7.185-16.055-16.049v-96.32C418.585,46.48,425.764,39.29,434.64,39.29z"/>
	<path fill="#ffffff" d="M611.23,39.29h96.32c8.854,0,16.049,7.19,16.049,16.055v96.32c0,8.865-7.195,16.049-16.049,16.049h-96.32
		c-8.876,0-16.056-7.185-16.056-16.049v-96.32C595.17,46.48,602.354,39.29,611.23,39.29z"/>
	<path fill="#ffffff" d="M258.055,39.29h96.32c8.859,0,16.056,7.19,16.056,16.055v96.32c0,8.865-7.196,16.049-16.056,16.049h-96.32
		c-8.871,0-16.055-7.185-16.055-16.049v-96.32C242,46.48,249.179,39.29,258.055,39.29z"/>
	<path fill="#ffffff" d="M434.64,215.875h96.32c8.859,0,16.056,7.179,16.056,16.055v96.314c0,8.876-7.196,16.055-16.056,16.055h-96.32
		c-8.87,0-16.055-7.179-16.055-16.055V231.93C418.585,223.059,425.764,215.875,434.64,215.875z"/>
	<path fill="#ffffff" d="M611.23,215.875h96.32c8.854,0,16.049,7.179,16.049,16.055v96.314c0,8.876-7.195,16.055-16.049,16.055h-96.32
		c-8.876,0-16.056-7.179-16.056-16.055V231.93C595.17,223.059,602.354,215.875,611.23,215.875z"/>
	<path fill="#ffffff" d="M258.055,215.875h96.32c8.859,0,16.056,7.179,16.056,16.055v96.314c0,8.876-7.196,16.055-16.056,16.055h-96.32
		c-8.871,0-16.055-7.179-16.055-16.055V231.93C242,223.059,249.179,215.875,258.055,215.875z"/>
	<path fill="#ffffff" d="M434.64,392.459h96.32c8.859,0,16.056,7.18,16.056,16.056v96.314c0,8.876-7.196,16.055-16.056,16.055h-96.32
		c-8.87,0-16.055-7.179-16.055-16.055v-96.314C418.585,399.639,425.764,392.459,434.64,392.459z"/>
	<path fill="#ffffff" d="M611.23,392.459h96.32c8.854,0,16.049,7.18,16.049,16.056v96.314c0,8.876-7.195,16.055-16.049,16.055h-96.32
		c-8.876,0-16.056-7.179-16.056-16.055v-96.314C595.17,399.639,602.354,392.459,611.23,392.459z"/>
	<path fill="#ffffff" d="M258.055,392.459h96.32c8.859,0,16.056,7.18,16.056,16.056v96.314c0,8.876-7.196,16.055-16.056,16.055h-96.32
		c-8.871,0-16.055-7.179-16.055-16.055v-96.314C242,399.639,249.179,392.459,258.055,392.459z"/>
</g>
</svg>
